# xmcd CD database file generated by OrangeCD 5.2
#
# Track frame offsets:
#	150
#	16063
#	28734
#	44804
#	62770
#	83306
#	100570
#	119238
#	132800
#	154338
#	165975
#	178288
#	192591
#	213368
#	233067
#	256160
#
# Disc length: 3602 seconds
#
# Revision: 1
# Processed by: cddbd v1.5PL3 Copyright (c) Steve Scherf et al.
# Submitted via: OrangeCD 5.2
#
DISCID=d50e1010
DTITLE=Various Artist - All Star Bluegrass Celebration
DYEAR=2002
DGENRE=Bluegrass
TTITLE0=Ricky Skaggs and Kentucky Thunder - Shady Grove
TTITLE1=Vince Gill with the Del McCoury Band - Crying Holy
TTITLE2=Allison Krauss and Union Station - Let Me Touch You for  Awhile
TTITLE3=Alison Krauss with Union Station with Dan Tyminski - I Am a Man of Cons
TTITLE3=tant Sorry
TTITLE4=The Del McCoury Band - 1952 Vincent Black Lightning
TTITLE5=The Del McCoury Band - Get Down On Your Knees and Pray
TTITLE6=Earl Scruggs - Foggy Mountain Breakdown
TTITLE7=Patty Loveless with Ricky Skaggs - Daniel Prayed
TTITLE8=Ralph Stanley with Patty Loveless - Pretty Polly
TTITLE9=Ralph Stanley - O' Death
TTITLE10=Ricky Skaggs with Travis Tritt and Patty Loveless - Uncle Pen
TTITLE11=Travis Tritt with Ricky Skaggs - Little Georgia Rose
TTITLE12=Bruce Hornsby with Ricky Skaggs - Darlin Corey
TTITLE13=Nickel Creek - Seven Wonders
TTITLE14=Group Finale - Lonesome Reuben
TTITLE15=Rawhide
EXTD=info by l. renn.
EXTT0=
EXTT1=
EXTT2=
EXTT3=
EXTT4=
EXTT5=
EXTT6=
EXTT7=
EXTT8=
EXTT9=
EXTT10=
EXTT11=
EXTT12=
EXTT13=
EXTT14=
EXTT15=
PLAYORDER=
